<svg width="154" height="49" viewBox="0 0 154 49" fill="none" xmlns="http://www.w3.org/2000/svg">
<g filter="url(#filter0_d_93_38)">
<path d="M4.17651 20C4.17651 8.95431 13.1308 0 24.1765 0H129.177C140.222 0 149.177 8.95431 149.177 20V21C149.177 32.0457 140.222 41 129.177 41H24.1765C13.1308 41 4.17651 32.0457 4.17651 21V20Z" fill="white" fill-opacity="0.4" shape-rendering="crispEdges"/>
<path d="M18.88 22.3366C17.9804 22.3366 17.1565 22.1165 16.4084 21.6761C15.665 21.2311 15.0708 20.6368 14.6257 19.8935C14.1854 19.1454 13.9652 18.3191 13.9652 17.4148C13.9652 16.7377 14.0931 16.1032 14.3487 15.5114C14.6044 14.9148 14.9572 14.3916 15.407 13.9418C15.8568 13.492 16.3776 13.1392 16.9695 12.8835C17.5661 12.6278 18.2029 12.5 18.88 12.5H19.8175V14.9006H18.88C18.4207 14.9006 17.9993 15.0142 17.6158 15.2415C17.237 15.4688 16.934 15.7718 16.7067 16.1506C16.4794 16.5294 16.3658 16.9508 16.3658 17.4148C16.3658 17.8788 16.4771 18.3026 16.6996 18.6861C16.9269 19.0649 17.2299 19.3679 17.6087 19.5952C17.9922 19.8224 18.416 19.9361 18.88 19.9361H30.9254V22.3366H18.88ZM26.6357 27.7699L25.0022 26.1222L29.9951 21.1364L25.0022 16.1364L26.6357 14.5028L33.2692 21.1364L26.6357 27.7699ZM41.1438 27.5V12.9545H46.9677C48.0378 12.9545 48.9303 13.1132 49.6453 13.4304C50.3602 13.7476 50.8976 14.188 51.2575 14.7514C51.6173 15.3101 51.7973 15.9541 51.7973 16.6832C51.7973 17.2514 51.6836 17.7509 51.4563 18.1818C51.2291 18.608 50.9166 18.9583 50.5188 19.233C50.1259 19.5028 49.676 19.6946 49.1694 19.8082V19.9503C49.7234 19.974 50.2419 20.1302 50.7248 20.419C51.2125 20.7079 51.6079 21.1127 51.9109 21.6335C52.2139 22.1496 52.3654 22.7652 52.3654 23.4801C52.3654 24.2519 52.1737 24.9408 51.7901 25.5469C51.4114 26.1482 50.8503 26.6241 50.1069 26.9744C49.3635 27.3248 48.4473 27.5 47.3583 27.5H41.1438ZM44.2191 24.9858H46.7262C47.5832 24.9858 48.2082 24.8224 48.6012 24.4957C48.9942 24.1643 49.1907 23.724 49.1907 23.1747C49.1907 22.7723 49.0937 22.4171 48.8995 22.1094C48.7054 21.8016 48.4284 21.5601 48.0686 21.3849C47.7134 21.2098 47.2897 21.1222 46.7973 21.1222H44.2191V24.9858ZM44.2191 19.0412H46.499C46.9204 19.0412 47.2944 18.9678 47.6211 18.821C47.9526 18.6695 48.213 18.4564 48.4024 18.1818C48.5965 17.9072 48.6936 17.5781 48.6936 17.1946C48.6936 16.669 48.5065 16.2453 48.1325 15.9233C47.7632 15.6013 47.2376 15.4403 46.5558 15.4403H44.2191V19.0412ZM65.3875 24.1548L68.342 16.5909H70.6431L66.3889 27.5H64.3789L60.2241 16.5909H62.5181L65.3875 24.1548ZM61.8292 16.5909V27.5H58.9386V16.5909H61.8292ZM69.0948 27.5V16.5909H71.95V27.5H69.0948ZM79.2617 27.7131C78.1396 27.7131 77.1737 27.4858 76.364 27.0312C75.5591 26.572 74.9388 25.9233 74.5032 25.0852C74.0676 24.2424 73.8498 23.2457 73.8498 22.0952C73.8498 20.973 74.0676 19.9882 74.5032 19.1406C74.9388 18.2931 75.552 17.6326 76.3427 17.1591C77.1382 16.6856 78.0709 16.4489 79.141 16.4489C79.8607 16.4489 80.5307 16.5649 81.1509 16.7969C81.7759 17.0241 82.3205 17.3674 82.7845 17.8267C83.2532 18.286 83.6178 18.8636 83.8782 19.5597C84.1386 20.2509 84.2688 21.0606 84.2688 21.9886V22.8196H75.0572V20.9446H81.4208C81.4208 20.509 81.3261 20.1231 81.1367 19.7869C80.9473 19.4508 80.6846 19.188 80.3484 18.9986C80.0169 18.8045 79.6311 18.7074 79.1907 18.7074C78.7314 18.7074 78.3242 18.8139 77.9691 19.027C77.6187 19.2353 77.3441 19.517 77.1453 19.8722C76.9464 20.2225 76.8446 20.6132 76.8399 21.044V22.8267C76.8399 23.3665 76.9393 23.8329 77.1382 24.2259C77.3418 24.6188 77.6282 24.9219 77.9975 25.1349C78.3669 25.348 78.8048 25.4545 79.3115 25.4545C79.6476 25.4545 79.9554 25.4072 80.2348 25.3125C80.5141 25.2178 80.7532 25.0758 80.9521 24.8864C81.1509 24.697 81.3025 24.465 81.4066 24.1903L84.2049 24.375C84.0629 25.0473 83.7717 25.6345 83.3313 26.1364C82.8957 26.6335 82.3323 27.0218 81.641 27.3011C80.9544 27.5758 80.1614 27.7131 79.2617 27.7131ZM93.8356 20.8381V23.2173H88.1396V20.8381H93.8356ZM89.1339 16.5909V27.5H86.2433V16.5909H89.1339ZM95.7319 16.5909V27.5H92.8626V16.5909H95.7319ZM104.109 20.902V23.3026H98.1928V20.902H104.109ZM100.529 16.5909V27.5H97.511V16.5909H100.529ZM107.376 27.7131C106.297 27.7131 105.364 27.4716 104.578 26.9886C103.792 26.5057 103.186 25.8381 102.76 24.9858C102.338 24.1335 102.128 23.1558 102.128 22.0526C102.128 20.9493 102.338 19.9763 102.76 19.1335C103.186 18.2907 103.792 17.6326 104.578 17.1591C105.364 16.6856 106.297 16.4489 107.376 16.4489C108.46 16.4489 109.393 16.6856 110.174 17.1591C110.96 17.6326 111.564 18.2907 111.985 19.1335C112.412 19.9763 112.625 20.9493 112.625 22.0526C112.625 23.1558 112.412 24.1335 111.985 24.9858C111.564 25.8381 110.96 26.5057 110.174 26.9886C109.393 27.4716 108.46 27.7131 107.376 27.7131ZM107.376 25.2699C107.94 25.2699 108.394 25.1326 108.74 24.858C109.085 24.5786 109.339 24.1974 109.5 23.7145C109.661 23.2268 109.741 22.6728 109.741 22.0526C109.741 21.4323 109.661 20.883 109.5 20.4048C109.339 19.9219 109.085 19.5431 108.74 19.2685C108.394 18.9938 107.94 18.8565 107.376 18.8565C106.817 18.8565 106.363 18.9938 106.012 19.2685C105.662 19.5384 105.404 19.9124 105.238 20.3906C105.077 20.8688 104.997 21.4228 104.997 22.0526C104.997 22.6776 105.077 23.2315 105.238 23.7145C105.404 24.1974 105.662 24.5786 106.012 24.858C106.363 25.1326 106.817 25.2699 107.376 25.2699ZM124.935 22.3366C124.035 22.3366 123.211 22.1165 122.463 21.6761C121.72 21.2311 121.125 20.6368 120.68 19.8935C120.24 19.1454 120.02 18.3191 120.02 17.4148C120.02 16.7377 120.148 16.1032 120.403 15.5114C120.659 14.9148 121.012 14.3916 121.462 13.9418C121.911 13.492 122.432 13.1392 123.024 12.8835C123.621 12.6278 124.258 12.5 124.935 12.5H125.872V14.9006H124.935C124.475 14.9006 124.054 15.0142 123.67 15.2415C123.292 15.4688 122.989 15.7718 122.761 16.1506C122.534 16.5294 122.42 16.9508 122.42 17.4148C122.42 17.8788 122.532 18.3026 122.754 18.6861C122.982 19.0649 123.285 19.3679 123.663 19.5952C124.047 19.8224 124.471 19.9361 124.935 19.9361H136.98V22.3366H124.935ZM132.69 27.7699L131.057 26.1222L136.05 21.1364L131.057 16.1364L132.69 14.5028L139.324 21.1364L132.69 27.7699Z" fill="black"/>
</g>
<defs>
<filter id="filter0_d_93_38" x="0.176514" y="0" width="153" height="49" filterUnits="userSpaceOnUse" color-interpolation-filters="sRGB">
<feFlood flood-opacity="0" result="BackgroundImageFix"/>
<feColorMatrix in="SourceAlpha" type="matrix" values="0 0 0 0 0 0 0 0 0 0 0 0 0 0 0 0 0 0 127 0" result="hardAlpha"/>
<feOffset dy="4"/>
<feGaussianBlur stdDeviation="2"/>
<feComposite in2="hardAlpha" operator="out"/>
<feColorMatrix type="matrix" values="0 0 0 0 0 0 0 0 0 0 0 0 0 0 0 0 0 0 0.25 0"/>
<feBlend mode="normal" in2="BackgroundImageFix" result="effect1_dropShadow_93_38"/>
<feBlend mode="normal" in="SourceGraphic" in2="effect1_dropShadow_93_38" result="shape"/>
</filter>
</defs>
</svg>
